<?xml version="1.0" ?>
<svg xmlns="http://www.w3.org/2000/svg" width="310" height="439" viewBox="0 0 310 439">
  <defs>
    <linearGradient id="gradient-outline" x1="0%" y1="0%" x2="100%" y2="100%">
      <stop offset="0%" style="stop-color:#ff7eb3;stop-opacity:1"/>
      <stop offset="100%" style="stop-color:#8affd4;stop-opacity:1"/>
    </linearGradient>
  </defs>
  <rect x="0" y="0" width="310" height="439" rx="10" fill="none" stroke="url(#gradient-outline)" stroke_width="6"/>
  <rect x="6" y="6" width="298" height="427" rx="10"  fill="none" stroke="#1C274C"/>
<g>
    <!-- Circle with a radius of 30 and centered at (55, 55) -->
    <circle cx="55" cy="55" r="30"  fill="none" stroke="#1C274C" />
  </g>
  <g transform="translate(42, 42)">
    <!-- Path centered inside the circle -->
    <path fill="white" d="M14.2639 15.9375L12.5958 14.2834C11.7909 13.4851 11.3884 13.086 10.9266 12.9401C10.5204 12.8118 10.0838 12.8165 9.68048 12.9536C9.22188 13.1095 8.82814 13.5172 8.04068 14.3326L4.04409 18.2801M14.2639 15.9375L14.6053 15.599C15.4112 14.7998 15.8141 14.4002 16.2765 14.2543C16.6831 14.126 17.12 14.1311 17.5236 14.2687C17.9824 14.4251 18.3761 14.8339 19.1634 15.6514L20 16.4934M14.2639 15.9375L18.275 19.9565M18.275 19.9565C17.9176 20 17.4543 20 16.8 20H7.2C6.07989 20 5.51984 20 5.09202 19.782C4.71569 19.5903 4.40973 19.2843 4.21799 18.908C4.12796 18.7313 4.07512 18.5321 4.04409 18.2801M18.275 19.9565C18.5293 19.9256 18.7301 19.8727 18.908 19.782C19.2843 19.5903 19.5903 19.2843 19.782 18.908C20 18.4802 20 17.9201 20 16.8V16.4934M4.04409 18.2801C4 17.9221 4 17.4575 4 16.8V7.2C4 6.0799 4 5.51984 4.21799 5.09202C4.40973 4.71569 4.71569 4.40973 5.09202 4.21799C5.51984 4 6.07989 4 7.2 4H16.8C17.9201 4 18.4802 4 18.908 4.21799C19.2843 4.40973 19.5903 4.71569 19.782 5.09202C20 5.51984 20 6.0799 20 7.2V16.4934M17 8.99989C17 10.1045 16.1046 10.9999 15 10.9999C13.8954 10.9999 13 10.1045 13 8.99989C13 7.89532 13.8954 6.99989 15 6.99989C16.1046 6.99989 17 7.89532 17 8.99989Z" stroke="#000000" stroke-width="2" stroke-linecap="round" stroke-linejoin="round"/>
  </g>
  <text x="100" y="50"  fill="none" stroke="gray" style="font-size:16px;font-family:Arial">User1</text>
  <text x="100" y="70" fill="#b3b3b3" style="font-size:14px;font-family:Arial">@auth</text>
  <rect x="30" y="100" width="250" height="40" rx="5" fill="#b7e800"/>
  <text x="155" y="125"  fill="none" stroke="gray" style="font-size:14px;font-family:Arial;text-anchor:middle;dominant-baseline:middle">+ Add profile</text>
  <g transform="translate(32, 185)">
    <g transform="scale(0.06)">
    <path  fill="gray" fill-rule="evenodd" clip-rule="evenodd" stroke="gray"  d="M12.809,238.52L0,306.637l68.118-12.809l184.277-184.277l-55.309-55.309L12.809,238.52z M60.79,279.943l-41.992,7.896
			l7.896-41.992L197.086,75.455l34.096,34.096L60.79,279.943z" stroke_width="2" width="2"/>
		<path  fill="gray" fill-rule="evenodd" clip-rule="evenodd" stroke="gray"  d="M251.329,0l-41.507,41.507l55.308,55.308l41.507-41.507L251.329,0z M231.035,41.507l20.294-20.294l34.095,34.095
			L265.13,75.602L231.035,41.507z" />
    </g>
  </g>
  <text x="60" y="195"  fill="none" stroke="gray" style="font-size:14px;font-family:Arial;dominant-baseline:middle">Edit profiles</text>
  <g transform="translate(30, 230)">
    <path fill-rule="evenodd" clip-rule="evenodd" d="M12 8.25C9.92894 8.25 8.25 9.92893 8.25 12C8.25 14.0711 9.92894 15.75 12 15.75C14.0711 15.75 15.75 14.0711 15.75 12C15.75 9.92893 14.0711 8.25 12 8.25ZM9.75 12C9.75 10.7574 10.7574 9.75 12 9.75C13.2426 9.75 14.25 10.7574 14.25 12C14.25 13.2426 13.2426 14.25 12 14.25C10.7574 14.25 9.75 13.2426 9.75 12Z" fill="white" stroke="gray"/>
<path fill-rule="evenodd" clip-rule="evenodd" d="M11.9747 1.25C11.5303 1.24999 11.1592 1.24999 10.8546 1.27077C10.5375 1.29241 10.238 1.33905 9.94761 1.45933C9.27379 1.73844 8.73843 2.27379 8.45932 2.94762C8.31402 3.29842 8.27467 3.66812 8.25964 4.06996C8.24756 4.39299 8.08454 4.66251 7.84395 4.80141C7.60337 4.94031 7.28845 4.94673 7.00266 4.79568C6.64714 4.60777 6.30729 4.45699 5.93083 4.40743C5.20773 4.31223 4.47642 4.50819 3.89779 4.95219C3.64843 5.14353 3.45827 5.3796 3.28099 5.6434C3.11068 5.89681 2.92517 6.21815 2.70294 6.60307L2.67769 6.64681C2.45545 7.03172 2.26993 7.35304 2.13562 7.62723C1.99581 7.91267 1.88644 8.19539 1.84541 8.50701C1.75021 9.23012 1.94617 9.96142 2.39016 10.5401C2.62128 10.8412 2.92173 11.0602 3.26217 11.2741C3.53595 11.4461 3.68788 11.7221 3.68786 12C3.68785 12.2778 3.53592 12.5538 3.26217 12.7258C2.92169 12.9397 2.62121 13.1587 2.39007 13.4599C1.94607 14.0385 1.75012 14.7698 1.84531 15.4929C1.88634 15.8045 1.99571 16.0873 2.13552 16.3727C2.26983 16.6469 2.45535 16.9682 2.67758 17.3531L2.70284 17.3969C2.92507 17.7818 3.11058 18.1031 3.28089 18.3565C3.45817 18.6203 3.64833 18.8564 3.89769 19.0477C4.47632 19.4917 5.20763 19.6877 5.93073 19.5925C6.30717 19.5429 6.647 19.3922 7.0025 19.2043C7.28833 19.0532 7.60329 19.0596 7.8439 19.1986C8.08452 19.3375 8.24756 19.607 8.25964 19.9301C8.27467 20.3319 8.31403 20.7016 8.45932 21.0524C8.73843 21.7262 9.27379 22.2616 9.94761 22.5407C10.238 22.661 10.5375 22.7076 10.8546 22.7292C11.1592 22.75 11.5303 22.75 11.9747 22.75H12.0252C12.4697 22.75 12.8407 22.75 13.1454 22.7292C13.4625 22.7076 13.762 22.661 14.0524 22.5407C14.7262 22.2616 15.2616 21.7262 15.5407 21.0524C15.686 20.7016 15.7253 20.3319 15.7403 19.93C15.7524 19.607 15.9154 19.3375 16.156 19.1985C16.3966 19.0596 16.7116 19.0532 16.9974 19.2042C17.3529 19.3921 17.6927 19.5429 18.0692 19.5924C18.7923 19.6876 19.5236 19.4917 20.1022 19.0477C20.3516 18.8563 20.5417 18.6203 20.719 18.3565C20.8893 18.1031 21.0748 17.7818 21.297 17.3969L21.3223 17.3531C21.5445 16.9682 21.7301 16.6468 21.8644 16.3726C22.0042 16.0872 22.1135 15.8045 22.1546 15.4929C22.2498 14.7697 22.0538 14.0384 21.6098 13.4598C21.3787 13.1586 21.0782 12.9397 20.7378 12.7258C20.464 12.5538 20.3121 12.2778 20.3121 11.9999C20.3121 11.7221 20.464 11.4462 20.7377 11.2742C21.0783 11.0603 21.3788 10.8414 21.6099 10.5401C22.0539 9.96149 22.2499 9.23019 22.1547 8.50708C22.1136 8.19546 22.0043 7.91274 21.8645 7.6273C21.7302 7.35313 21.5447 7.03183 21.3224 6.64695L21.2972 6.60318C21.0749 6.21825 20.8894 5.89688 20.7191 5.64347C20.5418 5.37967 20.3517 5.1436 20.1023 4.95225C19.5237 4.50826 18.7924 4.3123 18.0692 4.4075C17.6928 4.45706 17.353 4.60782 16.9975 4.79572C16.7117 4.94679 16.3967 4.94036 16.1561 4.80144C15.9155 4.66253 15.7524 4.39297 15.7403 4.06991C15.7253 3.66808 15.686 3.2984 15.5407 2.94762C15.2616 2.27379 14.7262 1.73844 14.0524 1.45933C13.762 1.33905 13.4625 1.29241 13.1454 1.27077C12.8407 1.24999 12.4697 1.24999 12.0252 1.25H11.9747ZM10.5216 2.84515C10.5988 2.81319 10.716 2.78372 10.9567 2.76729C11.2042 2.75041 11.5238 2.75 12 2.75C12.4762 2.75 12.7958 2.75041 13.0432 2.76729C13.284 2.78372 13.4012 2.81319 13.4783 2.84515C13.7846 2.97202 14.028 3.21536 14.1548 3.52165C14.1949 3.61826 14.228 3.76887 14.2414 4.12597C14.271 4.91835 14.68 5.68129 15.4061 6.10048C16.1321 6.51968 16.9974 6.4924 17.6984 6.12188C18.0143 5.9549 18.1614 5.90832 18.265 5.89467C18.5937 5.8514 18.9261 5.94047 19.1891 6.14228C19.2554 6.19312 19.3395 6.27989 19.4741 6.48016C19.6125 6.68603 19.7726 6.9626 20.0107 7.375C20.2488 7.78741 20.4083 8.06438 20.5174 8.28713C20.6235 8.50382 20.6566 8.62007 20.6675 8.70287C20.7108 9.03155 20.6217 9.36397 20.4199 9.62698C20.3562 9.70995 20.2424 9.81399 19.9397 10.0041C19.2684 10.426 18.8122 11.1616 18.8121 11.9999C18.8121 12.8383 19.2683 13.574 19.9397 13.9959C20.2423 14.186 20.3561 14.29 20.4198 14.373C20.6216 14.636 20.7107 14.9684 20.6674 15.2971C20.6565 15.3799 20.6234 15.4961 20.5173 15.7128C20.4082 15.9355 20.2487 16.2125 20.0106 16.6249C19.7725 17.0373 19.6124 17.3139 19.474 17.5198C19.3394 17.72 19.2553 17.8068 19.189 17.8576C18.926 18.0595 18.5936 18.1485 18.2649 18.1053C18.1613 18.0916 18.0142 18.045 17.6983 17.8781C16.9973 17.5075 16.132 17.4803 15.4059 17.8995C14.68 18.3187 14.271 19.0816 14.2414 19.874C14.228 20.2311 14.1949 20.3817 14.1548 20.4784C14.028 20.7846 13.7846 21.028 13.4783 21.1549C13.4012 21.1868 13.284 21.2163 13.0432 21.2327C12.7958 21.2496 12.4762 21.25 12 21.25C11.5238 21.25 11.2042 21.2496 10.9567 21.2327C10.716 21.2163 10.5988 21.1868 10.5216 21.1549C10.2154 21.028 9.97201 20.7846 9.84514 20.4784C9.80512 20.3817 9.77195 20.2311 9.75859 19.874C9.72896 19.0817 9.31997 18.3187 8.5939 17.8995C7.86784 17.4803 7.00262 17.5076 6.30158 17.8781C5.98565 18.0451 5.83863 18.0917 5.73495 18.1053C5.40626 18.1486 5.07385 18.0595 4.81084 17.8577C4.74458 17.8069 4.66045 17.7201 4.52586 17.5198C4.38751 17.314 4.22736 17.0374 3.98926 16.625C3.75115 16.2126 3.59171 15.9356 3.4826 15.7129C3.37646 15.4962 3.34338 15.3799 3.33248 15.2971C3.28921 14.9684 3.37828 14.636 3.5801 14.373C3.64376 14.2901 3.75761 14.186 4.0602 13.9959C4.73158 13.5741 5.18782 12.8384 5.18786 12.0001C5.18791 11.1616 4.73165 10.4259 4.06021 10.004C3.75769 9.81389 3.64385 9.70987 3.58019 9.62691C3.37838 9.3639 3.28931 9.03149 3.33258 8.7028C3.34348 8.62001 3.37656 8.50375 3.4827 8.28707C3.59181 8.06431 3.75125 7.78734 3.98935 7.37493C4.22746 6.96253 4.3876 6.68596 4.52596 6.48009C4.66055 6.27983 4.74468 6.19305 4.81093 6.14222C5.07395 5.9404 5.40636 5.85133 5.73504 5.8946C5.83873 5.90825 5.98576 5.95483 6.30173 6.12184C7.00273 6.49235 7.86791 6.51962 8.59394 6.10045C9.31998 5.68128 9.72896 4.91837 9.75859 4.12602C9.77195 3.76889 9.80512 3.61827 9.84514 3.52165C9.97201 3.21536 10.2154 2.97202 10.5216 2.84515Z" fill="white" stroke="gray"/>

  </g>
  <text x="60" y="245"  fill="none" stroke="gray" style="font-size:14px;font-family:Arial;dominant-baseline:middle">App settings</text>
  <g transform="translate(30, 280)">
    <path fill="white" d="M11 21H5.6C5.03995 21 4.75992 21 4.54601 20.891C4.35785 20.7951 4.20487 20.6422 4.10899 20.454C4 20.2401 4 19.9601 4 19.4V17.6841C4 17.0485 4 16.7306 4.04798 16.4656C4.27087 15.2344 5.23442 14.2709 6.46558 14.048C6.5425 14.0341 6.6237 14.0242 6.71575 14.0172C6.94079 14 7.05331 13.9914 7.20361 14.0026C7.35983 14.0143 7.4472 14.0297 7.59797 14.0722C7.74302 14.1131 8.00429 14.2315 8.52682 14.4682C8.98953 14.6778 9.48358 14.8304 10 14.917M19.8726 15.2038C19.8044 15.2079 19.7357 15.21 19.6667 15.21C18.6422 15.21 17.7077 14.7524 17 14C16.2923 14.7524 15.3578 15.2099 14.3333 15.2099C14.2643 15.2099 14.1956 15.2078 14.1274 15.2037C14.0442 15.5853 14 15.9855 14 16.3979C14 18.6121 15.2748 20.4725 17 21C18.7252 20.4725 20 18.6121 20 16.3979C20 15.9855 19.9558 15.5853 19.8726 15.2038ZM15 7C15 9.20914 13.2091 11 11 11C8.79086 11 7 9.20914 7 7C7 4.79086 8.79086 3 11 3C13.2091 3 15 4.79086 15 7Z" stroke="gray" stroke-width="2" stroke-linecap="round" stroke-linejoin="round"/>

  </g>
  <text x="60" y="295"  fill="none" stroke="gray" style="font-size:14px;font-family:Arial;dominant-baseline:middle">Account</text>
  <g transform="translate(30, 330)">
    <path fill="white" d="M10 9C10 8.60444 10.1173 8.21776 10.3371 7.88886C10.5568 7.55996 10.8692 7.30362 11.2346 7.15224C11.6001 7.00087 12.0022 6.96126 12.3902 7.03843C12.7781 7.1156 13.1345 7.30608 13.4142 7.58579C13.6939 7.86549 13.8844 8.22186 13.9616 8.60982C14.0387 8.99778 13.9991 9.39992 13.8478 9.76537C13.6964 10.1308 13.44 10.4432 13.1111 10.6629C12.7822 10.8827 12.3956 11 12 11V12M14.25 19L12.8 20.9333C12.4 21.4667 11.6 21.4667 11.2 20.9333L9.75 19H7C4.79086 19 3 17.2091 3 15V7C3 4.79086 4.79086 3 7 3H17C19.2091 3 21 4.79086 21 7V15C21 17.2091 19.2091 19 17 19H14.25Z" stroke="gray" stroke-width="2" stroke-linecap="round" stroke-linejoin="round"/>
<circle cx="12" cy="15" r="1" fill="#000000"/>

  </g>
  <text x="60" y="345"  fill="none" stroke="gray" style="font-size:14px;font-family:Arial;dominant-baseline:middle">Help</text>
  <g transform="translate(30, 380)">
    <path fill="white" d="M8.00195 7C8.01406 4.82497 8.11051 3.64706 8.87889 2.87868C9.75757 2 11.1718 2 14.0002 2H15.0002C17.8286 2 19.2429 2 20.1215 2.87868C21.0002 3.75736 21.0002 5.17157 21.0002 8V16C21.0002 18.8284 21.0002 20.2426 20.1215 21.1213C19.2429 22 17.8286 22 15.0002 22H14.0002C11.1718 22 9.75757 22 8.87889 21.1213C8.11051 20.3529 8.01406 19.175 8.00195 17" stroke="gray" stroke-width="1.5" stroke-linecap="round"/>
<path fill="white" d="M8 19.5C5.64298 19.5 4.46447 19.5 3.73223 18.7678C3 18.0355 3 16.857 3 14.5V9.5C3 7.14298 3 5.96447 3.73223 5.23223C4.46447 4.5 5.64298 4.5 8 4.5" stroke="gray" stroke-width="1.5"/>
<path fill="white" d="M15 12L6 12M6 12L8 14M6 12L8 10" stroke="gray" stroke-width="1.5" stroke-linecap="round" stroke-linejoin="round"/>

  </g>
  <text x="60" y="395"  fill="none" stroke="gray" style="font-size:14px;font-family:Arial;dominant-baseline:middle">Log out</text>
</svg>
